<?xml version="1.0" encoding="UTF-8" standalone="no"?>
<!-- Created with Inkscape (http://www.inkscape.org/) -->

<svg
   width="260mm"
   height="260mm"
   viewBox="0 0 260 260"
   version="1.1"
   id="svg1"
   xml:space="preserve"
   sodipodi:docname="deltark.svg"
   inkscape:version="1.3.2 (091e20e, 2023-11-25)"
   xmlns:inkscape="http://www.inkscape.org/namespaces/inkscape"
   xmlns:sodipodi="http://sodipodi.sourceforge.net/DTD/sodipodi-0.dtd"
   xmlns:xlink="http://www.w3.org/1999/xlink"
   xmlns="http://www.w3.org/2000/svg"
   xmlns:svg="http://www.w3.org/2000/svg"><sodipodi:namedview
     id="namedview1"
     pagecolor="#ffffff"
     bordercolor="#666666"
     borderopacity="1.0"
     inkscape:showpageshadow="2"
     inkscape:pageopacity="0.0"
     inkscape:pagecheckerboard="0"
     inkscape:deskcolor="#d1d1d1"
     inkscape:document-units="mm"
     showguides="false"
     inkscape:lockguides="false"
     inkscape:zoom="0.076222124"
     inkscape:cx="-2328.7202"
     inkscape:cy="-1285.7159"
     inkscape:window-width="1728"
     inkscape:window-height="1051"
     inkscape:window-x="685"
     inkscape:window-y="1371"
     inkscape:window-maximized="0"
     inkscape:current-layer="layer1"
     showgrid="false"><sodipodi:guide
       position="72.585564,-9.137163"
       orientation="0,-1"
       id="guide1"
       inkscape:locked="false" /><sodipodi:guide
       position="110.37129,3.2589272"
       orientation="0,-1"
       id="guide2"
       inkscape:locked="false" /><sodipodi:guide
       position="99.470303,15.049787"
       orientation="0,-1"
       id="guide3"
       inkscape:locked="false" /><sodipodi:guide
       position="46.745159,2.9252272"
       orientation="1,0"
       id="guide4"
       inkscape:locked="false" /><sodipodi:guide
       position="68.324647,0.92300719"
       orientation="1,0"
       id="guide5"
       inkscape:locked="false" /><sodipodi:guide
       position="127.72386,47.975197"
       orientation="1,0"
       id="guide6"
       inkscape:locked="false" /><sodipodi:guide
       position="128.90573,119.56849"
       orientation="0,-1"
       id="guide7"
       inkscape:locked="false" /><sodipodi:guide
       position="135.06534,105.81714"
       orientation="0,-1"
       id="guide8"
       inkscape:locked="false" /><sodipodi:guide
       position="130.40392,64.733223"
       orientation="0,-1"
       id="guide17"
       inkscape:locked="false" /><sodipodi:guide
       position="135.96017,80.475933"
       orientation="0,-1"
       id="guide18"
       inkscape:locked="false" /><sodipodi:guide
       position="99.447673,51.636347"
       orientation="1,0"
       id="guide19"
       inkscape:locked="false" /><sodipodi:guide
       position="208.48978,-8.971073"
       orientation="1,0"
       id="guide27"
       inkscape:locked="false" /><inkscape:grid
       id="grid60"
       units="px"
       originx="22.718507"
       originy="-14.671577"
       spacingx="0.26458333"
       spacingy="0.26458334"
       empcolor="#0099e5"
       empopacity="0.30196078"
       color="#0099e5"
       opacity="0.14901961"
       empspacing="5"
       dotted="false"
       gridanglex="30"
       gridanglez="30"
       visible="false" /></sodipodi:namedview><defs
     id="defs1"><linearGradient
       id="linearGradient135"
       inkscape:collect="always"><stop
         style="stop-color:#cbd9e3;stop-opacity:1;"
         offset="0"
         id="stop133" /><stop
         style="stop-color:#fcfcfc;stop-opacity:1;"
         offset="1"
         id="stop135" /></linearGradient><linearGradient
       id="linearGradient132"
       inkscape:collect="always"><stop
         style="stop-color:#e5e6e8;stop-opacity:1;"
         offset="0"
         id="stop130" /><stop
         style="stop-color:#a6bfd2;stop-opacity:1;"
         offset="1"
         id="stop132" /></linearGradient><linearGradient
       id="linearGradient128"
       inkscape:collect="always"><stop
         style="stop-color:#cbdbe3;stop-opacity:1;"
         offset="0"
         id="stop127" /><stop
         style="stop-color:#f4f4f4;stop-opacity:1;"
         offset="0.5"
         id="stop129" /><stop
         style="stop-color:#fcfcfc;stop-opacity:1;"
         offset="1"
         id="stop128" /></linearGradient><linearGradient
       id="linearGradient125"
       inkscape:collect="always"><stop
         style="stop-color:#fdfafb;stop-opacity:1;"
         offset="0"
         id="stop124" /><stop
         style="stop-color:#a2c2d3;stop-opacity:1;"
         offset="0.5"
         id="stop126" /><stop
         style="stop-color:#d2d2da;stop-opacity:1;"
         offset="1"
         id="stop125" /></linearGradient><linearGradient
       id="linearGradient123"
       inkscape:collect="always"><stop
         style="stop-color:#ed8f42;stop-opacity:1;"
         offset="0"
         id="stop122" /><stop
         style="stop-color:#ef903f;stop-opacity:1;"
         offset="1"
         id="stop123" /></linearGradient><linearGradient
       id="linearGradient120"
       inkscape:collect="always"><stop
         style="stop-color:#603a40;stop-opacity:1;"
         offset="0"
         id="stop120" /><stop
         style="stop-color:#3d2733;stop-opacity:1;"
         offset="1"
         id="stop121" /></linearGradient><linearGradient
       id="linearGradient117"
       inkscape:collect="always"><stop
         style="stop-color:#dd4b29;stop-opacity:1;"
         offset="0"
         id="stop118" /><stop
         style="stop-color:#fac65b;stop-opacity:1;"
         offset="1"
         id="stop119" /></linearGradient><linearGradient
       id="linearGradient115"
       inkscape:collect="always"><stop
         style="stop-color:#625e65;stop-opacity:1;"
         offset="0"
         id="stop115" /><stop
         style="stop-color:#462d37;stop-opacity:1;"
         offset="0.5"
         id="stop117" /><stop
         style="stop-color:#3b3447;stop-opacity:1;"
         offset="1"
         id="stop116" /></linearGradient><linearGradient
       id="linearGradient113"
       inkscape:collect="always"><stop
         style="stop-color:#ef632e;stop-opacity:1;"
         offset="0"
         id="stop113" /><stop
         style="stop-color:#e8b765;stop-opacity:1;"
         offset="1"
         id="stop114" /></linearGradient><linearGradient
       id="linearGradient111"
       inkscape:collect="always"><stop
         style="stop-color:#e55b30;stop-opacity:1;"
         offset="0"
         id="stop111" /><stop
         style="stop-color:#f1c96d;stop-opacity:1;"
         offset="1"
         id="stop112" /></linearGradient><linearGradient
       id="linearGradient107"
       inkscape:collect="always"><stop
         style="stop-color:#312632;stop-opacity:1;"
         offset="0"
         id="stop107" /><stop
         style="stop-color:#8c4941;stop-opacity:1;"
         offset="1"
         id="stop108" /></linearGradient><linearGradient
       id="linearGradient105"
       inkscape:collect="always"><stop
         style="stop-color:#f68937;stop-opacity:1;"
         offset="0"
         id="stop105" /><stop
         style="stop-color:#facf5f;stop-opacity:1;"
         offset="1"
         id="stop106" /></linearGradient><linearGradient
       inkscape:collect="always"
       xlink:href="#linearGradient105"
       id="linearGradient106"
       x1="89.831085"
       y1="145.41716"
       x2="87.349564"
       y2="125.0687"
       gradientUnits="userSpaceOnUse" /><linearGradient
       inkscape:collect="always"
       xlink:href="#linearGradient107"
       id="linearGradient108"
       x1="110.67587"
       y1="129.03912"
       x2="103.72761"
       y2="102.735"
       gradientUnits="userSpaceOnUse" /><linearGradient
       inkscape:collect="always"
       xlink:href="#linearGradient111"
       id="linearGradient112"
       x1="135.34877"
       y1="152.73302"
       x2="121.68972"
       y2="128.82968"
       gradientUnits="userSpaceOnUse" /><linearGradient
       inkscape:collect="always"
       xlink:href="#linearGradient113"
       id="linearGradient114"
       x1="143.10959"
       y1="164.52946"
       x2="129.45055"
       y2="156.76865"
       gradientUnits="userSpaceOnUse" /><linearGradient
       inkscape:collect="always"
       xlink:href="#linearGradient115"
       id="linearGradient116"
       x1="144.90675"
       y1="171.29552"
       x2="125.5097"
       y2="170.71651"
       gradientUnits="userSpaceOnUse" /><linearGradient
       inkscape:collect="always"
       xlink:href="#linearGradient117"
       id="linearGradient119"
       x1="122.93145"
       y1="176.01549"
       x2="73.883041"
       y2="174.15289"
       gradientUnits="userSpaceOnUse" /><linearGradient
       inkscape:collect="always"
       xlink:href="#linearGradient120"
       id="linearGradient121"
       x1="68.29525"
       y1="174.77376"
       x2="69.847412"
       y2="159.56253"
       gradientUnits="userSpaceOnUse" /><linearGradient
       inkscape:collect="always"
       xlink:href="#linearGradient123"
       id="linearGradient122"
       x1="98.407249"
       y1="106.78893"
       x2="101.20114"
       y2="119.82712"
       gradientUnits="userSpaceOnUse" /><linearGradient
       inkscape:collect="always"
       xlink:href="#linearGradient125"
       id="linearGradient124"
       x1="149.8385"
       y1="186.52463"
       x2="91.93631"
       y2="82.654274"
       gradientUnits="userSpaceOnUse" /><linearGradient
       inkscape:collect="always"
       xlink:href="#linearGradient128"
       id="linearGradient126"
       x1="131.27444"
       y1="189.61864"
       x2="74.256248"
       y2="86.632286"
       gradientUnits="userSpaceOnUse" /><linearGradient
       inkscape:collect="always"
       xlink:href="#linearGradient132"
       id="linearGradient129"
       x1="181.87781"
       y1="189.60164"
       x2="167.71745"
       y2="190.15335"
       gradientUnits="userSpaceOnUse" /><linearGradient
       inkscape:collect="always"
       xlink:href="#linearGradient135"
       id="linearGradient133"
       x1="27.217306"
       y1="188.86604"
       x2="39.906456"
       y2="188.68214"
       gradientUnits="userSpaceOnUse" /><filter
       style="color-interpolation-filters:sRGB;"
       inkscape:label="Drop Shadow"
       id="filter146"
       x="-0.26713626"
       y="-0.24190486"
       width="1.5565339"
       height="1.5039684"><feFlood
         result="flood"
         in="SourceGraphic"
         flood-opacity="1.000000"
         flood-color="rgb(0,0,0)"
         id="feFlood145" /><feGaussianBlur
         result="blur"
         in="SourceGraphic"
         stdDeviation="2.500000"
         id="feGaussianBlur145" /><feOffset
         result="offset"
         in="blur"
         dx="0.500000"
         dy="0.500000"
         id="feOffset145" /><feComposite
         result="comp1"
         operator="in"
         in="flood"
         in2="offset"
         id="feComposite145" /><feComposite
         result="comp2"
         operator="over"
         in="SourceGraphic"
         in2="comp1"
         id="feComposite146" /></filter><filter
       style="color-interpolation-filters:sRGB;"
       inkscape:label="Drop Shadow"
       id="filter148"
       x="-0.31754476"
       y="-0.20020721"
       width="1.6615516"
       height="1.4170984"><feFlood
         result="flood"
         in="SourceGraphic"
         flood-opacity="1.000000"
         flood-color="rgb(0,0,0)"
         id="feFlood146" /><feGaussianBlur
         result="blur"
         in="SourceGraphic"
         stdDeviation="2.500000"
         id="feGaussianBlur146" /><feOffset
         result="offset"
         in="blur"
         dx="0.500000"
         dy="0.500000"
         id="feOffset146" /><feComposite
         result="comp1"
         operator="in"
         in="flood"
         in2="offset"
         id="feComposite147" /><feComposite
         result="comp2"
         operator="over"
         in="SourceGraphic"
         in2="comp1"
         id="feComposite148" /></filter><filter
       style="color-interpolation-filters:sRGB;"
       inkscape:label="Drop Shadow"
       id="filter150"
       x="-0.21893908"
       y="-0.50705597"
       width="1.4561231"
       height="2.0563666"><feFlood
         result="flood"
         in="SourceGraphic"
         flood-opacity="1.000000"
         flood-color="rgb(0,0,0)"
         id="feFlood148" /><feGaussianBlur
         result="blur"
         in="SourceGraphic"
         stdDeviation="2.500000"
         id="feGaussianBlur148" /><feOffset
         result="offset"
         in="blur"
         dx="0.500000"
         dy="0.500000"
         id="feOffset148" /><feComposite
         result="comp1"
         operator="in"
         in="flood"
         in2="offset"
         id="feComposite149" /><feComposite
         result="comp2"
         operator="over"
         in="SourceGraphic"
         in2="comp1"
         id="feComposite150" /></filter><filter
       style="color-interpolation-filters:sRGB;"
       inkscape:label="Drop Shadow"
       id="filter158"
       x="-0.037360083"
       y="-0.34308395"
       width="1.0778335"
       height="1.7147582"><feFlood
         result="flood"
         in="SourceGraphic"
         flood-opacity="1.000000"
         flood-color="rgb(150,179,193)"
         id="feFlood157" /><feGaussianBlur
         result="blur"
         in="SourceGraphic"
         stdDeviation="2.500000"
         id="feGaussianBlur157" /><feOffset
         result="offset"
         in="blur"
         dx="0.500000"
         dy="0.500000"
         id="feOffset157" /><feComposite
         result="comp1"
         operator="in"
         in="flood"
         in2="offset"
         id="feComposite157" /><feComposite
         result="comp2"
         operator="over"
         in="SourceGraphic"
         in2="comp1"
         id="feComposite158" /></filter><filter
       style="color-interpolation-filters:sRGB;"
       inkscape:label="Drop Shadow"
       id="filter203"
       x="-0.30987807"
       y="-0.28060964"
       width="1.6420175"
       height="1.581378"><feFlood
         result="flood"
         in="SourceGraphic"
         flood-opacity="0.650980"
         flood-color="rgb(0,0,0)"
         id="feFlood202" /><feGaussianBlur
         result="blur"
         in="SourceGraphic"
         stdDeviation="2.900000"
         id="feGaussianBlur202" /><feOffset
         result="offset"
         in="blur"
         dx="0.500000"
         dy="0.500000"
         id="feOffset202" /><feComposite
         result="comp1"
         operator="in"
         in="flood"
         in2="offset"
         id="feComposite202" /><feComposite
         result="comp2"
         operator="over"
         in="SourceGraphic"
         in2="comp1"
         id="feComposite203" /></filter><filter
       style="color-interpolation-filters:sRGB;"
       inkscape:label="Drop Shadow"
       id="filter205"
       x="-0.36835193"
       y="-0.23224037"
       width="1.7631659"
       height="1.4811647"><feFlood
         result="flood"
         in="SourceGraphic"
         flood-opacity="0.650980"
         flood-color="rgb(0,0,0)"
         id="feFlood203" /><feGaussianBlur
         result="blur"
         in="SourceGraphic"
         stdDeviation="2.900000"
         id="feGaussianBlur203" /><feOffset
         result="offset"
         in="blur"
         dx="0.500000"
         dy="0.500000"
         id="feOffset203" /><feComposite
         result="comp1"
         operator="in"
         in="flood"
         in2="offset"
         id="feComposite204" /><feComposite
         result="comp2"
         operator="over"
         in="SourceGraphic"
         in2="comp1"
         id="feComposite205" /></filter><filter
       style="color-interpolation-filters:sRGB;"
       inkscape:label="Drop Shadow"
       id="filter207"
       x="-0.25396935"
       y="-0.58818495"
       width="1.5261836"
       height="2.2186246"><feFlood
         result="flood"
         in="SourceGraphic"
         flood-opacity="0.650980"
         flood-color="rgb(0,0,0)"
         id="feFlood205" /><feGaussianBlur
         result="blur"
         in="SourceGraphic"
         stdDeviation="2.900000"
         id="feGaussianBlur205" /><feOffset
         result="offset"
         in="blur"
         dx="0.500000"
         dy="0.500000"
         id="feOffset205" /><feComposite
         result="comp1"
         operator="in"
         in="flood"
         in2="offset"
         id="feComposite206" /><feComposite
         result="comp2"
         operator="over"
         in="SourceGraphic"
         in2="comp1"
         id="feComposite207" /></filter><filter
       style="color-interpolation-filters:sRGB;"
       inkscape:label="Drop Shadow"
       id="filter253"
       x="-0.031847353"
       y="-0.054652451"
       width="1.0636947"
       height="1.1942439"><feFlood
         result="flood"
         in="SourceGraphic"
         flood-opacity="0.564706"
         flood-color="rgb(255,213,78)"
         id="feFlood252" /><feGaussianBlur
         result="blur"
         in="SourceGraphic"
         stdDeviation="2.000000"
         id="feGaussianBlur252" /><feOffset
         result="offset"
         in="blur"
         dx="0.000000"
         dy="0.000000"
         id="feOffset252" /><feComposite
         result="comp1"
         operator="out"
         in="flood"
         in2="offset"
         id="feComposite252" /><feComposite
         result="comp2"
         operator="atop"
         in="comp1"
         in2="SourceGraphic"
         id="feComposite253" /></filter></defs><g
     inkscape:label="Layer 1"
     inkscape:groupmode="layer"
     id="layer1"
     transform="translate(22.71851,-14.671573)"><rect
       style="fill:#0b151e;fill-opacity:1;stroke:none;stroke-width:13.2788;stroke-linecap:round;stroke-linejoin:round;stroke-miterlimit:29.5;stroke-dasharray:none;stroke-opacity:0.339315;paint-order:markers stroke fill"
       id="rect135"
       width="260"
       height="260"
       x="-22.71851"
       y="14.671573"
       inkscape:export-filename="rect135.png"
       inkscape:export-xdpi="200.07384"
       inkscape:export-ydpi="200.07384" /><path
       style="fill:#ff0000;fill-opacity:0.442088;stroke:none;stroke-width:0.264583px;stroke-linecap:butt;stroke-linejoin:miter;stroke-opacity:1"
       d="m 185.9008,168.17888 c 0.0531,1.48555 0.0832,2.97118 0.0832,4.45554 0,-1.48441 -0.0301,-2.96995 -0.0832,-4.45554 z"
       id="path103" /><path
       style="fill:#ff0000;fill-opacity:0.442088;stroke:none;stroke-width:0.264583px;stroke-linecap:butt;stroke-linejoin:miter;stroke-opacity:1"
       d="m 24.211442,166.22706 c -0.02616,0.50901 -0.06531,1.01745 -0.08527,1.52652 0.01991,-0.50897 0.05917,-1.01761 0.08527,-1.52652 z"
       id="path102" /><path
       style="fill:#ff0000;fill-opacity:0.442088;stroke:none;stroke-width:0.264583px;stroke-linecap:butt;stroke-linejoin:miter;stroke-opacity:1"
       d="m 185.6605,163.74143 c 0.0716,1.0079 0.12108,2.01657 0.16847,3.02513 -0.0474,-1.00867 -0.0968,-2.01712 -0.16847,-3.02513 z"
       id="path101" /><path
       style="fill:#ff0000;fill-opacity:0.442088;stroke:none;stroke-width:0.264583px;stroke-linecap:butt;stroke-linejoin:miter;stroke-opacity:1"
       d="m 185.26569,159.31844 c 0.0935,0.87994 0.16984,1.76095 0.24495,2.64222 -0.0751,-0.88137 -0.15142,-1.76219 -0.24495,-2.64222 z"
       id="path99" /><path
       style="fill:#ff0000;fill-opacity:0.442088;stroke:none;stroke-width:0.264583px;stroke-linecap:butt;stroke-linejoin:miter;stroke-opacity:1"
       d="m 184.71069,154.866 c 0.12019,0.84712 0.22705,1.69595 0.33021,2.54506 -0.1032,-0.84929 -0.20997,-1.69777 -0.33021,-2.54506 z"
       id="path97" /><path
       style="fill:#ff0000;fill-opacity:0.442088;stroke:none;stroke-width:0.264583px;stroke-linecap:butt;stroke-linejoin:miter;stroke-opacity:1"
       d="m 184.00221,150.44456 c 0.14919,0.83976 0.28873,1.68088 0.42116,2.52336 -0.13246,-0.84252 -0.27193,-1.68356 -0.42116,-2.52336 z"
       id="path95" /><path
       style="fill:#ff0000;fill-opacity:0.442088;stroke:none;stroke-width:0.264583px;stroke-linecap:butt;stroke-linejoin:miter;stroke-opacity:1"
       d="m 183.14593,146.07532 c 0.17369,0.81291 0.3413,1.62706 0.49919,2.44326 -0.15794,-0.81631 -0.32545,-1.63024 -0.49919,-2.44326 z"
       id="path93" /><path
       style="fill:#ff0000;fill-opacity:0.442088;stroke:none;stroke-width:0.264583px;stroke-linecap:butt;stroke-linejoin:miter;stroke-opacity:1"
       d="m 182.12635,141.68903 c 0.20274,0.80873 0.40267,1.61809 0.58963,2.43086 -0.18702,-0.81287 -0.38683,-1.62202 -0.58963,-2.43086 z"
       id="path91" /><path
       style="fill:#ff0000;fill-opacity:0.442088;stroke:none;stroke-width:0.264583px;stroke-linecap:butt;stroke-linejoin:miter;stroke-opacity:1"
       d="m 180.94038,137.2955 c 0.24013,0.83114 0.48055,1.6623 0.70383,2.49855 -0.22335,-0.83636 -0.46362,-1.66731 -0.70383,-2.49855 z"
       id="path90" /><path
       style="fill:#ff0000;fill-opacity:0.442088;stroke:none;stroke-width:0.264583px;stroke-linecap:butt;stroke-linejoin:miter;stroke-opacity:1"
       d="m 179.56733,132.85029 c 0.28949,0.87955 0.5803,1.75849 0.8506,2.6448 -0.27035,-0.8863 -0.56106,-1.76526 -0.8506,-2.6448 z"
       id="path88" /><path
       style="fill:#ff0000;fill-opacity:0.442088;stroke:none;stroke-width:0.264583px;stroke-linecap:butt;stroke-linejoin:miter;stroke-opacity:1"
       d="m 177.72817,127.62322 c 0.45667,1.20545 0.90009,2.417 1.31982,3.6375 -0.41985,-1.22063 -0.86301,-2.43193 -1.31982,-3.6375 z"
       id="path86" /><path
       style="fill:#ff0000;fill-opacity:0.442088;stroke:none;stroke-width:0.264583px;stroke-linecap:butt;stroke-linejoin:miter;stroke-opacity:1"
       d="m 175.89262,123.04262 c 0.42128,0.99082 0.81975,1.9924 1.21543,2.99516 -0.39576,-1.00278 -0.79406,-2.00433 -1.21543,-2.99516 z"
       id="path85" /><text
       xml:space="preserve"
       style="font-style:normal;font-variant:normal;font-weight:bold;font-stretch:normal;font-size:24.4936px;line-height:1.25;font-family:Arial;-inkscape-font-specification:'Arial Bold';letter-spacing:6.23887px;fill:#fdfdfd;fill-opacity:1;stroke:none;stroke-width:0.255142;filter:url(#filter158)"
       x="22.256603"
       y="229.1179"
       id="text27"><tspan
         sodipodi:role="line"
         id="tspan27"
         style="font-style:normal;font-variant:normal;font-weight:bold;font-stretch:normal;font-size:24.4936px;font-family:'Helvetica Neue';-inkscape-font-specification:'Helvetica Neue Bold';letter-spacing:8.70215px;fill:#fdfdfd;fill-opacity:1;stroke-width:0.255142"
         x="22.256603"
         y="229.1179"
         dx="0 -1.8092746 -0.60309154 -3.0154579 0.90463728 -0.60309154 -0.60309154">DELTARK</tspan></text><g
       id="g207"
       style="filter:url(#filter253)"><path
         style="fill:#ff0000;fill-opacity:0.442088;stroke:none;stroke-width:0.264583px;stroke-linecap:butt;stroke-linejoin:miter;stroke-opacity:1"
         d="m 24.579895,161.09973 c -0.05419,0.58736 -0.117315,1.17379 -0.163298,1.76165 0.04588,-0.5878 0.109218,-1.17434 0.163298,-1.76165 z"
         id="path100" /><path
         style="fill:#ff0000;fill-opacity:0.442088;stroke:none;stroke-width:0.264583px;stroke-linecap:butt;stroke-linejoin:miter;stroke-opacity:1"
         d="m 25.131799,156.16153 c -0.07869,0.59724 -0.162327,1.19345 -0.232544,1.79162 0.07006,-0.59801 0.15403,-1.19453 0.232544,-1.79162 z"
         id="path98" /><path
         style="fill:#ff0000;fill-opacity:0.442088;stroke:none;stroke-width:0.264583px;stroke-linecap:butt;stroke-linejoin:miter;stroke-opacity:1"
         d="m 25.863538,151.31066 c -0.09912,0.57981 -0.199298,1.15887 -0.290422,1.73995 0.09093,-0.58098 0.191506,-1.16023 0.290422,-1.73995 z"
         id="path96" /><path
         style="fill:#ff0000;fill-opacity:0.442088;stroke:none;stroke-width:0.264583px;stroke-linecap:butt;stroke-linejoin:miter;stroke-opacity:1"
         d="m 26.773043,146.52336 c -0.111351,0.5294 -0.220395,1.05876 -0.325045,1.58956 0.104434,-0.53068 0.213923,-1.06027 0.325045,-1.58956 z"
         id="path94" /><path
         style="fill:#ff0000;fill-opacity:0.442088;stroke:none;stroke-width:0.264583px;stroke-linecap:butt;stroke-linejoin:miter;stroke-opacity:1"
         d="m 27.861348,141.78359 c -0.115072,0.45972 -0.225403,0.92027 -0.33538,1.38131 0.109777,-0.461 0.220515,-0.92162 0.33538,-1.38131 z"
         id="path92" /><path
         style="fill:#ff0000;fill-opacity:0.442088;stroke:none;stroke-width:0.264583px;stroke-linecap:butt;stroke-linejoin:miter;stroke-opacity:1"
         d="m 29.128971,137.08466 c -0.103993,0.35704 -0.201425,0.71582 -0.302307,1.07383 0.100705,-0.35797 0.198494,-0.71683 0.302307,-1.07383 z"
         id="path89" /><path
         style="fill:#ff0000;fill-opacity:0.442088;stroke:none;stroke-width:0.264583px;stroke-linecap:butt;stroke-linejoin:miter;stroke-opacity:1"
         d="m 30.573844,132.4436 c -0.06603,0.19806 -0.126659,0.39791 -0.191719,0.59634 0.06496,-0.19842 0.125785,-0.39828 0.191719,-0.59634 z"
         id="path87" /><path
         style="fill:#ff0000;fill-opacity:0.442088;stroke:none;stroke-width:0.264583px;stroke-linecap:butt;stroke-linejoin:miter;stroke-opacity:1"
         d="m 174.09067,119.01702 c 0.35953,0.76724 0.70112,1.54379 1.04489,2.31924 -0.34385,-0.77548 -0.68527,-1.55197 -1.04489,-2.31924 z"
         id="path84" /><path
         style="fill:#ff0000;fill-opacity:0.442088;stroke:none;stroke-width:0.264583px;stroke-linecap:butt;stroke-linejoin:miter;stroke-opacity:1"
         d="m 172.14505,115.06274 c 0.35777,0.69571 0.70153,1.39933 1.04593,2.10272 -0.3445,-0.70344 -0.68807,-1.40696 -1.04593,-2.10272 z"
         id="path83" /><path
         style="fill:#ff0000;fill-opacity:0.442088;stroke:none;stroke-width:0.264583px;stroke-linecap:butt;stroke-linejoin:miter;stroke-opacity:1"
         d="m 170.05422,111.18288 c 0.37319,0.6634 0.73597,1.33322 1.09657,2.00453 -0.36068,-0.67133 -0.7233,-1.34112 -1.09657,-2.00453 z"
         id="path82" /><path
         style="fill:#ff0000;fill-opacity:0.442088;stroke:none;stroke-width:0.264583px;stroke-linecap:butt;stroke-linejoin:miter;stroke-opacity:1"
         d="m 167.83782,107.41722 c 0.38502,0.6276 0.76307,1.25989 1.13636,1.89549 -0.3734,-0.63567 -0.75123,-1.26783 -1.13636,-1.89549 z"
         id="path81" /><path
         style="fill:#ff0000;fill-opacity:0.442088;stroke:none;stroke-width:0.264583px;stroke-linecap:butt;stroke-linejoin:miter;stroke-opacity:1"
         d="m 165.48551,103.74716 c 0.3957,0.5925 0.78827,1.18744 1.17305,1.788 -0.3849,-0.60065 -0.77722,-1.19541 -1.17305,-1.788 z"
         id="path80" /><path
         style="fill:#ff0000;fill-opacity:0.442088;stroke:none;stroke-width:0.264583px;stroke-linecap:butt;stroke-linejoin:miter;stroke-opacity:1"
         d="m 163.00504,100.18923 c 0.40632,0.55961 0.81263,1.119 1.20871,1.68672 -0.39617,-0.56774 -0.8023,-1.12709 -1.20871,-1.68672 z"
         id="path79" /><path
         style="fill:#ff0000;fill-opacity:0.442088;stroke:none;stroke-width:0.264583px;stroke-linecap:butt;stroke-linejoin:miter;stroke-opacity:1"
         d="m 160.40003,96.74965 c 0.41298,0.523527 0.82949,1.044044 1.233,1.575614 -0.40361,-0.531599 -0.81993,-1.052059 -1.233,-1.575614 z"
         id="path78" /><path
         style="fill:#ff0000;fill-opacity:0.442088;stroke:none;stroke-width:0.264583px;stroke-linecap:butt;stroke-linejoin:miter;stroke-opacity:1"
         d="m 157.67203,93.43409 c 0.4189,0.488857 0.84457,0.971315 1.2547,1.468128 -0.41017,-0.496773 -0.83576,-0.979311 -1.2547,-1.468128 z"
         id="path77" /><path
         style="fill:#ff0000;fill-opacity:0.442088;stroke:none;stroke-width:0.264583px;stroke-linecap:butt;stroke-linejoin:miter;stroke-opacity:1"
         d="m 155.1466,90.592403 c 0.31172,0.337839 0.63375,0.665576 0.94103,1.007691 -0.30733,-0.342113 -0.62926,-0.669854 -0.94103,-1.007691 z"
         id="path76" /><g
         id="g162"><path
           style="color:#000000;fill:#00fff6;fill-opacity:0.554649;stroke-width:1.01118;stroke-linecap:round;stroke-linejoin:round;stroke-miterlimit:29.5;-inkscape-stroke:none"
           d="m 141.8792,178.27749 c -0.0709,0.0129 -0.1386,0.0329 -0.21033,0.0439 a 7.8494433,7.9180194 0 0 0 0.21033,-0.0439 z"
           id="path60" /><path
           style="color:#000000;fill:#00fff6;fill-opacity:0.554649;stroke-width:1.01118;stroke-linecap:round;stroke-linejoin:round;stroke-miterlimit:29.5;-inkscape-stroke:none"
           d="m 143.06672,177.95968 c -0.0682,0.0241 -0.13495,0.0506 -0.20412,0.0729 a 7.8494433,7.9180194 0 0 0 0.20412,-0.0729 z"
           id="path59" /><path
           style="color:#000000;fill:#00fff6;fill-opacity:0.554649;stroke-width:1.01118;stroke-linecap:round;stroke-linejoin:round;stroke-miterlimit:29.5;-inkscape-stroke:none"
           d="m 144.18345,177.4641 c -0.0602,0.0329 -0.12219,0.0632 -0.18345,0.0946 a 7.8494433,7.9180194 0 0 0 0.18345,-0.0946 z"
           id="path58" /><path
           style="color:#000000;fill:#00fff6;fill-opacity:0.554649;stroke-width:1.01118;stroke-linecap:round;stroke-linejoin:round;stroke-miterlimit:29.5;-inkscape-stroke:none"
           d="m 65.097835,177.014 a 7.8494433,7.9180194 0 0 0 0.0677,0.0475 c -0.02277,-0.0156 -0.04511,-0.0317 -0.0677,-0.0475 z"
           id="path57" /><path
           style="color:#000000;fill:#00fff6;fill-opacity:0.554649;stroke-width:1.01118;stroke-linecap:round;stroke-linejoin:round;stroke-miterlimit:29.5;-inkscape-stroke:none"
           d="m 145.20096,176.80781 c -0.0363,0.0281 -0.0763,0.0516 -0.11318,0.0791 a 7.8494433,7.9180194 0 0 0 0.11318,-0.0791 z"
           id="path56" /><path
           style="color:#000000;fill:#00fff6;fill-opacity:0.554649;stroke-width:1.01118;stroke-linecap:round;stroke-linejoin:round;stroke-miterlimit:29.5;-inkscape-stroke:none"
           d="m 146.2996,175.76447 c -0.0765,0.0871 -0.14606,0.17979 -0.22635,0.26355 a 7.8494433,7.9180194 0 0 0 0.22635,-0.26355 z"
           id="path55" /><path
           style="color:#000000;fill:#00fff6;fill-opacity:0.554649;stroke-width:1.01118;stroke-linecap:round;stroke-linejoin:round;stroke-miterlimit:29.5;-inkscape-stroke:none"
           d="m 63.393547,175.4017 a 7.8494433,7.9180194 0 0 0 0.06976,0.0816 c -0.02235,-0.028 -0.04779,-0.0534 -0.06976,-0.0816 z"
           id="path54" /><path
           style="color:#000000;fill:#00fff6;fill-opacity:0.554649;stroke-width:1.01118;stroke-linecap:round;stroke-linejoin:round;stroke-miterlimit:29.5;-inkscape-stroke:none"
           d="m 147.07268,174.7299 c -0.0931,0.14867 -0.18832,0.29593 -0.29094,0.43822 a 7.8494433,7.9180194 0 0 0 0.29094,-0.43822 z"
           id="path53" /><path
           style="color:#000000;fill:#00fff6;fill-opacity:0.554649;stroke-width:1.01118;stroke-linecap:round;stroke-linejoin:round;stroke-miterlimit:29.5;-inkscape-stroke:none"
           d="m 147.61683,173.7186 c -0.0725,0.16344 -0.15671,0.32092 -0.23978,0.47904 a 7.8494433,7.9180194 0 0 0 0.23978,-0.47904 z"
           id="path52" /><path
           style="color:#000000;fill:#00fff6;fill-opacity:0.554649;stroke-width:1.01118;stroke-linecap:round;stroke-linejoin:round;stroke-miterlimit:29.5;-inkscape-stroke:none"
           d="m 62.22876,173.32482 a 7.8494433,7.9180194 0 0 0 0.03669,0.10439 c -0.01363,-0.0343 -0.02353,-0.07 -0.03669,-0.10439 z"
           id="path51" /><path
           style="color:#000000;fill:#00fff6;fill-opacity:0.554649;stroke-width:1.01118;stroke-linecap:round;stroke-linejoin:round;stroke-miterlimit:29.5;-inkscape-stroke:none"
           d="m 148.0137,172.62822 c -0.0312,0.11146 -0.0746,0.21832 -0.11058,0.32815 a 7.8494433,7.9180194 0 0 0 0.11058,-0.32815 z"
           id="path50" /><path
           style="color:#000000;fill:#00fff6;fill-opacity:0.554649;stroke-width:1.01118;stroke-linecap:round;stroke-linejoin:round;stroke-miterlimit:29.5;-inkscape-stroke:none"
           d="m 148.25917,171.24174 c -0.01,0.10212 -0.0136,0.20509 -0.0274,0.30645 a 7.8494433,7.9180194 0 0 0 0.0274,-0.30645 z"
           id="path49" /><path
           style="color:#000000;fill:#00fff6;fill-opacity:0.554649;stroke-width:1.01118;stroke-linecap:round;stroke-linejoin:round;stroke-miterlimit:29.5;-inkscape-stroke:none"
           d="m 61.727498,171.05209 a 7.8494433,7.9180194 0 0 0 0.0062,0.0796 c -0.0022,-0.0265 -0.0043,-0.053 -0.0062,-0.0796 z"
           id="path48" /><path
           style="color:#000000;fill:#00fff6;fill-opacity:0.554649;stroke-width:1.01118;stroke-linecap:round;stroke-linejoin:round;stroke-miterlimit:29.5;-inkscape-stroke:none"
           d="m 148.28191,170.02166 c 0.006,0.10616 0.0109,0.212 0.0129,0.31781 a 7.8494433,7.9180194 0 0 0 -0.0129,-0.31781 z"
           id="path47" /><path
           style="color:#000000;fill:#00fff6;fill-opacity:0.554649;stroke-width:1.01118;stroke-linecap:round;stroke-linejoin:round;stroke-miterlimit:29.5;-inkscape-stroke:none"
           d="m 148.11861,168.81088 c 0.0238,0.10779 0.0373,0.21562 0.0563,0.3235 a 7.8494433,7.9180194 0 0 0 -0.0563,-0.3235 z"
           id="path46" /><path
           style="color:#000000;fill:#00fff6;fill-opacity:0.554649;stroke-width:1.01118;stroke-linecap:round;stroke-linejoin:round;stroke-miterlimit:29.5;-inkscape-stroke:none"
           d="m 147.77031,167.63525 c 0.0454,0.11632 0.0716,0.23445 0.1111,0.3514 a 7.8494433,7.9180194 0 0 0 -0.1111,-0.3514 z"
           id="path45" /><path
           style="color:#000000;fill:url(#linearGradient119);fill-opacity:1;stroke-width:1.01118;stroke-linecap:round;stroke-linejoin:round;stroke-miterlimit:29.5;-inkscape-stroke:none"
           d="m 76.759656,166.62911 -6.697783,11.79101 H 128.71979 L 115.0276,166.62911 Z"
           id="path44" /><path
           style="color:#000000;fill:url(#linearGradient114);fill-opacity:1;stroke-width:1.01118;stroke-linecap:round;stroke-linejoin:round;stroke-miterlimit:29.5;-inkscape-stroke:none"
           d="m 140.46688,154.69753 -13.79813,0.34314 6.5748,11.56156 c 3.99625,-0.006 5.99072,-0.0169 8.9917,-0.0134 3.02683,0.004 5.04853,0.0138 5.0586,0.0351 a 7.8494433,7.9180194 0 0 0 -0.0403,-0.0853 z"
           id="path43" /><path
           style="color:#000000;fill:url(#linearGradient122);fill-opacity:1;stroke-width:1.01118;stroke-linecap:round;stroke-linejoin:round;stroke-miterlimit:29.5;-inkscape-stroke:none"
           d="m 98.211576,104.68043 -4.397147,7.67137 7.375781,11.30318 3.81527,-6.70915 7.81296,13.73922 z"
           id="path40" /><path
           style="color:#000000;fill:#00fff6;fill-opacity:0.554649;stroke-width:1.01118;stroke-linecap:round;stroke-linejoin:round;stroke-miterlimit:29.5;-inkscape-stroke:none"
           d="m 99.530876,103.01232 a 7.8494433,7.9180194 0 0 0 -0.338481,0.34054 c 0.107035,-0.11964 0.224594,-0.22788 0.338481,-0.34054 z"
           id="path39" /><path
           style="color:#000000;fill:#00fff6;fill-opacity:0.554649;stroke-width:1.01118;stroke-linecap:round;stroke-linejoin:round;stroke-miterlimit:29.5;-inkscape-stroke:none"
           d="m 110.39585,102.90121 c 0.0265,0.0253 0.056,0.0467 0.0822,0.0724 a 7.8494433,7.9180194 0 0 0 -0.0822,-0.0724 z"
           id="path38" /><path
           style="color:#000000;fill:#00fff6;fill-opacity:0.554649;stroke-width:1.01118;stroke-linecap:round;stroke-linejoin:round;stroke-miterlimit:29.5;-inkscape-stroke:none"
           d="m 100.75147,101.99894 a 7.8494433,7.9180194 0 0 0 -0.0946,0.061 c 0.0311,-0.0209 0.0631,-0.0405 0.0946,-0.061 z"
           id="path37" /><path
           style="color:#000000;fill:#00fff6;fill-opacity:0.554649;stroke-width:1.01118;stroke-linecap:round;stroke-linejoin:round;stroke-miterlimit:29.5;-inkscape-stroke:none"
           d="m 108.5789,101.61137 c 0.0568,0.0293 0.11552,0.0545 0.17157,0.0853 a 7.8494433,7.9180194 0 0 0 -0.17157,-0.0853 z"
           id="path36" /><path
           style="color:#000000;fill:#00fff6;fill-opacity:0.554649;stroke-width:1.01118;stroke-linecap:round;stroke-linejoin:round;stroke-miterlimit:29.5;-inkscape-stroke:none"
           d="m 106.51184,100.88997 c 0.0756,0.0149 0.15138,0.0288 0.22635,0.046 a 7.8494433,7.9180194 0 0 0 -0.22635,-0.046 z"
           id="path26" /><path
           id="path27"
           style="fill:url(#linearGradient108);fill-opacity:1;stroke:none;stroke-width:0.264583px;stroke-linecap:butt;stroke-linejoin:miter;stroke-opacity:1;filter:url(#filter205)"
           d="m 104.45874,100.74527 c -0.7296,0.0515 -1.44848,0.20561 -2.13579,0.45785 -1.73282,0.63599 -3.188356,1.86706 -4.111374,3.47731 l 14.612544,26.01443 4.28243,-16.75815 -5.30511,-9.25628 c -1.5013,-2.61902 -4.35085,-4.14618 -7.3427,-3.93516 z"
           sodipodi:nodetypes="ccccccc" /><path
           id="path28"
           style="fill:url(#linearGradient112);fill-opacity:1;stroke:none;stroke-width:0.264583px;stroke-linecap:butt;stroke-linejoin:miter;stroke-opacity:1"
           d="m 121.84062,122.19668 -6.8988,12.22199 11.72693,20.622 13.79813,-0.34314 z" /><path
           id="path29"
           style="fill:url(#linearGradient106);fill-opacity:1;stroke:none;stroke-width:0.264583px;stroke-linecap:butt;stroke-linejoin:miter;stroke-opacity:1"
           d="M 93.814429,112.3518 69.853617,154.157 87.785856,147.22616 101.19021,123.6555 Z" /><path
           id="path30"
           style="fill:url(#linearGradient121);fill-opacity:1;stroke:none;stroke-width:0.264583px;stroke-linecap:butt;stroke-linejoin:miter;stroke-opacity:1;filter:url(#filter203)"
           d="m 84.151453,153.61698 -17.752922,6.56756 -3.641638,6.35413 c -3.025904,5.27894 0.75091,11.88198 6.795968,11.88145 h 0.509267 z"
           sodipodi:nodetypes="cccccc" /><path
           id="path31"
           style="fill:url(#linearGradient116);fill-opacity:1;stroke:none;stroke-width:0.264583px;stroke-linecap:butt;stroke-linejoin:miter;stroke-opacity:1;filter:url(#filter207)"
           d="m 142.23525,166.5888 c -6.87257,-0.008 -15.87302,0.0142 -21.32893,0.0279 l 13.80019,11.80342 h 5.75313 c 5.99748,-0.007 9.77172,-6.52166 6.83421,-11.79618 -0.0101,-0.0213 -2.03176,-0.0316 -5.0586,-0.0351 z" /></g></g><g
       id="g172"><path
         style="fill:url(#linearGradient129);fill-opacity:1;stroke:none;stroke-width:0.271286px;stroke-linecap:butt;stroke-linejoin:miter;stroke-opacity:1"
         d="m 164.40444,190.81626 h 21.53728 l -12.11047,-7.00828 z"
         id="path105"
         sodipodi:nodetypes="cccc" /><path
         style="fill:url(#linearGradient133);fill-opacity:1;stroke:none;stroke-width:0.264583px;stroke-linecap:butt;stroke-linejoin:miter;stroke-opacity:1"
         d="m 34.528125,180.84271 -10.45776,9.97355 h 21.535637 z"
         id="path66" /><path
         id="path62"
         style="fill:url(#linearGradient126);fill-opacity:1;stroke:none;stroke-width:0.264583px;stroke-linecap:butt;stroke-linejoin:miter;stroke-opacity:1"
         d="m 105.00548,62.110421 c -27.781813,5.227518 -51.596266,24.523225 -64.960515,49.103959 -11.828544,20.5429 -16.859439,44.46365 -16.018525,68.0399 0.02927,3.83937 -0.05854,7.79581 0.04392,11.56198 3.48592,-3.32452 6.97184,-6.64903 10.45776,-9.97355 C 35.319319,148.30933 43.767546,114.043 66.641891,89.789594 76.99057,78.79939 90.294351,72.534199 104.63363,67.852532 c 24.52484,8.53432 46.19588,24.151758 57.14738,48.003648 10.08819,21.17597 11.9541,45.46198 12.13238,68.33331 4.06347,2.17412 7.94535,4.68877 12.07061,6.62677 0.0508,-16.94882 0.55275,-34.15224 -4.22224,-50.61289 -8.17124,-31.81907 -29.9259,-61.440101 -61.18449,-73.538132 -5.04742,-1.960436 -10.26724,-3.470736 -15.57179,-4.554817 z"
         sodipodi:nodetypes="ccccccccccccc" /><path
         id="path63"
         style="fill:url(#linearGradient124);fill-opacity:1;stroke:none;stroke-width:0.264583px;stroke-linecap:butt;stroke-linejoin:miter;stroke-opacity:1"
         d="m 104.51042,65.88125 c -25.056832,7.885358 -45.454598,27.424788 -56.235835,51.16441 -9.310594,19.84083 -13.346562,42.23696 -13.933713,64.02892 3.704545,3.34063 7.494236,6.5702 11.26513,9.74168 0.221482,-18.44356 -1.30645,-37.27275 4.277267,-55.15459 7.058381,-24.40143 23.524168,-47.425543 47.462203,-57.445877 8.216958,-4.932628 17.063838,0.497976 24.389298,4.547073 26.7694,16.611112 41.56028,48.231964 42.57535,79.122684 0.19119,9.63905 0.0518,19.28249 0.0943,28.92348 3.23184,-2.16938 6.46369,-4.33875 9.69553,-6.50813 -0.37776,-8.23101 -0.0305,-17.15591 -1.05342,-25.61414 -2.38804,-27.18021 -12.81641,-54.8386 -33.98354,-72.919574 C 128.98936,76.953117 117.05229,70.447795 104.5104,65.88125 Z"
         sodipodi:nodetypes="cccccccccccccc" /></g></g></svg>
